PathFileType	4	(X/Y/Z)	s08c0103.trc
DataRate	CameraRate	NumFrames	NumMarkers	Units	OrigDataRate	OrigDataStartFrame	OrigNumFrames
200	200	5	50	mm	200	1000	2000
Frame#	Time	racr			lacr			c7			jug			rlel			rdr			llel			ldr			s2			lic			ric			lasi			rasi			rpsi			lpsi			rgt			lgt			rth1			rth2			rth3			rth4			rlfc			rmfc			rsh1			rsh2			rsh3			rsh4			rlmal			rmmal			rcal			rtoe			rmt5			lth1			lth2			lth4			lth3			llfc			lmfc			llmal			lmmal			lcal			lmt5			lsh1			lsh2			lsh3			lsh4			ltoe			SBIKE			LBIKE			RBIKE			
		X1	Y1	Z1	X2	Y2	Z2	X3	Y3	Z3	X4	Y4	Z4	X5	Y5	Z5	X6	Y6	Z6	X7	Y7	Z7	X8	Y8	Z8	X9	Y9	Z9	X10	Y10	Z10	X11	Y11	Z11	X12	Y12	Z12	X13	Y13	Z13	X14	Y14	Z14	X15	Y15	Z15	X16	Y16	Z16	X17	Y17	Z17	X18	Y18	Z18	X19	Y19	Z19	X20	Y20	Z20	X21	Y21	Z21	X22	Y22	Z22	X23	Y23	Z23	X24	Y24	Z24	X25	Y25	Z25	X26	Y26	Z26	X27	Y27	Z27	X28	Y28	Z28	X29	Y29	Z29	X30	Y30	Z30	X31	Y31	Z31	X32	Y32	Z32	X33	Y33	Z33	X34	Y34	Z34	X35	Y35	Z35	X36	Y36	Z36	X37	Y37	Z37	X38	Y38	Z38	X39	Y39	Z39	X40	Y40	Z40	X41	Y41	Z41	X42	Y42	Z42	X43	Y43	Z43	X44	Y44	Z44	X45	Y45	Z45	X46	Y46	Z46	X47	Y47	Z47	X48	Y48	Z48	X49	Y49	Z49	X50	Y50	Z50	
1000	5.0000	542.568395	1333.202798	-47.207062	560.275214	1329.731977	-385.435506	527.311694	1412.253724	-227.079813	488.928325	1253.244325	-211.933369	550.098967	1070.408203	35.564534	783.655482	906.012878	-58.688589	583.391674	1073.772118	-498.243287	794.916668	890.937133	-427.498225	-28.802154	1212.880577	-268.333117	146.257932	1191.431207	-394.500216	108.713472	1229.411158	-85.370462	158.294425	1146.187847	-352.367023	143.695988	1174.676128	-118.265946	-1.019600	1258.131068	-220.809747	8.077693	1254.381595	-314.622519	44.933987	1123.688903	-57.110196	88.961152	1084.443790	-432.878208	173.218536	997.405116	-43.165632	250.701939	953.720688	-43.318558	295.408542	879.436656	-50.655238	276.275129	980.255143	-49.760436	380.262774	790.462538	-64.891553	365.856111	776.605634	-176.332248	338.034605	664.759374	-35.692276	350.871923	576.958864	-52.141480	318.162725	497.039847	-57.636128	379.033454	577.865942	-81.458078	298.311753	376.841203	-66.073117	309.662135	401.203770	-154.130860	226.560659	326.092219	-110.294432	516.567053	399.693589	-104.370758	438.847062	342.153269	-40.080849	177.212937	991.570585	-433.714805	250.912668	944.347239	-430.770267	276.081707	967.208977	-418.557294	291.901303	865.636953	-435.298062	344.277546	747.600904	-416.882992	341.841848	722.785563	-308.024290	72.259401	432.336802	-405.235893	105.332145	433.483314	-321.993027	13.737619	455.351058	-361.137350	124.876510	271.683873	-420.250796	266.530162	645.867065	-437.038563	228.365158	573.785663	-418.950550	155.564211	521.114820	-415.755616	246.871038	561.122055	-383.413647	205.980496	239.458370	-351.820796	-191.681916	922.128489	-230.911901	-0.151732	79.985236	-427.303879	-1.344644	80.212810	-29.199057	
1001	5.0050	543.684806	1332.429273	-47.218294	560.170224	1328.546563	-385.605208	527.147597	1412.103246	-226.624476	489.954948	1252.756238	-212.965993	550.745017	1069.671398	36.156895	783.660507	905.059928	-58.876303	583.312803	1073.087145	-498.310084	795.017852	890.652206	-427.398999	-28.120285	1210.724647	-266.348606	146.077967	1190.649058	-392.142206	110.305468	1225.928149	-83.034875	158.873433	1145.438410	-350.366968	145.366594	1171.180369	-115.735248	-0.322599	1255.292273	-217.317209	8.481874	1252.528625	-312.220343	45.445231	1118.902014	-55.760344	91.597432	1084.506170	-431.742772	171.990800	990.183108	-42.328785	248.677071	945.236753	-42.531682	291.758689	870.120350	-50.673549	274.750999	971.209473	-48.316148	376.217557	780.760607	-64.420715	362.065740	766.593671	-175.080517	334.806957	654.544622	-35.182903	349.133912	566.972567	-51.849811	317.693529	486.502691	-57.747049	377.492693	568.269684	-80.914481	299.440572	365.887444	-66.204361	310.432841	390.610757	-154.262430	227.751200	315.336113	-110.699043	517.970989	388.371182	-104.524853	440.007534	331.142876	-40.211280	180.900425	993.092070	-432.493959	255.883303	948.059970	-430.487396	279.916600	970.294548	-415.486128	298.125494	869.538225	-433.584055	351.843199	752.913742	-415.168323	348.856428	727.854857	-306.357808	73.671300	443.313495	-405.207631	109.725240	441.581474	-321.680109	15.265187	467.124499	-361.179583	123.901283	281.961164	-420.417016	272.694912	652.549697	-435.776999	232.771408	581.321866	-417.860904	158.928140	530.241878	-415.135840	250.920635	568.265356	-382.256285	204.656929	248.680218	-351.912076	-191.574104	922.130844	-231.101739	-0.142259	79.935467	-427.337253	-1.346661	80.166651	-29.243945	
1002	5.0100	544.866309	1331.863689	-47.533330	559.938016	1327.468519	-386.201377	526.911386	1412.128423	-226.060679	490.774641	1252.345158	-213.876782	551.775751	1069.503526	36.884550	783.869850	904.216926	-59.014224	583.401328	1072.609585	-498.483804	795.208986	890.345160	-427.225197	-27.290792	1209.056098	-264.400884	145.927128	1189.981307	-389.906142	112.052718	1222.501498	-80.548717	159.501863	1144.820280	-348.294451	147.087289	1167.564908	-113.136034	-0.212171	1252.741261	-212.930168	8.784203	1250.571394	-309.462184	46.174240	1113.844241	-54.427256	93.916730	1084.866501	-430.610168	171.053974	983.071752	-41.445983	247.046649	936.869866	-41.739181	288.389089	860.748381	-50.660723	273.385022	962.123442	-47.115119	372.067160	770.779346	-64.513799	356.685057	754.825390	-173.933679	331.418328	643.936685	-34.875339	347.019225	556.662708	-51.676653	316.814761	475.792385	-57.829900	375.602042	558.356172	-80.447771	299.987736	355.153880	-66.128247	310.941268	379.786847	-154.320300	228.913408	304.127457	-111.493059	518.775031	377.005276	-104.660898	440.634389	319.952367	-40.361415	184.333293	994.621513	-431.371242	260.178979	951.135865	-428.446561	283.659404	973.628368	-412.451303	304.120623	873.613555	-431.778585	359.505084	758.567975	-413.605738	355.859681	733.148200	-304.599565	75.590298	454.241262	-405.145195	110.692828	451.779517	-322.164237	17.132667	478.924464	-361.470257	123.686366	292.347844	-420.425817	278.828618	659.634109	-434.416223	237.354070	589.107931	-416.882087	162.545214	539.497770	-414.400797	255.145446	575.333688	-381.046796	203.936855	258.097743	-352.100883	-191.511433	922.196825	-231.155946	-0.135936	79.890118	-427.338173	-1.335005	80.124016	-29.275273	
1003	5.0150	546.184086	1331.619289	-47.892950	559.320483	1326.480645	-386.958111	526.634047	1412.370747	-225.716756	491.604982	1252.253229	-214.920044	553.360525	1069.754985	37.599261	784.260656	903.549176	-59.180798	583.662662	1072.392791	-498.654516	795.500263	890.110538	-427.031172	-26.619987	1207.130987	-261.609736	145.705579	1189.578236	-387.650619	113.952947	1219.056527	-77.908190	160.055881	1144.379105	-346.165599	148.998054	1163.273556	-110.162038	-0.100989	1249.349642	-207.131976	8.899586	1249.037378	-306.284638	47.071367	1108.729562	-52.988029	95.864021	1085.393539	-429.420563	170.273275	975.874634	-40.704101	245.330421	928.167124	-41.254860	285.170448	851.494672	-50.775463	272.099718	952.979032	-46.189990	367.203008	760.937051	-65.074852	353.302624	745.830962	-174.094714	327.890627	633.324857	-34.837898	344.565315	546.354945	-51.633070	315.500477	464.984927	-57.856292	373.301098	548.351030	-80.232040	299.993942	344.450783	-65.891432	310.956797	368.914367	-154.228613	228.798217	293.721846	-111.415507	518.908955	365.562657	-104.897105	440.581582	308.887828	-40.453950	187.422383	996.127733	-430.462212	264.184822	954.323002	-426.564496	286.900167	977.246253	-410.068763	310.011734	877.915263	-429.988823	376.761059	770.720795	-423.342110	362.819207	738.664865	-302.779910	78.086493	465.114275	-405.110538	113.753474	461.946207	-321.382445	19.632758	490.321559	-361.442942	124.137977	302.833884	-420.478013	284.975634	666.678341	-432.466984	241.236634	595.395730	-413.303045	166.398840	548.989300	-413.691437	259.722464	582.875973	-380.177635	204.011604	267.754384	-352.222059	-191.472586	922.047032	-231.740669	-0.102566	79.857120	-427.341178	-1.343202	79.960290	-29.381992	
1004	5.0200	547.482604	1331.866527	-48.509170	557.943279	1325.458075	-386.023448	526.364431	1412.859323	-225.756908	492.320451	1252.524148	-215.831758	555.542540	1070.744539	38.212359	784.971098	902.964561	-59.175515	584.188348	1072.517767	-498.859752	795.886865	890.058798	-426.857831	-25.909138	1205.284783	-258.376721	145.282776	1189.488058	-385.438420	116.030137	1215.386475	-75.234487	160.486959	1144.149520	-344.093712	150.932272	1159.801741	-107.566768	1.773124	1247.485549	-205.960172	9.032896	1247.627431	-302.774590	48.156430	1103.521307	-51.511113	97.573881	1086.092149	-428.114180	169.737801	968.876954	-39.872079	243.546287	919.666991	-40.214420	282.090735	842.294800	-51.154145	271.012750	943.973401	-45.445539	362.287712	750.683495	-65.667914	348.583643	735.542919	-174.190318	324.158740	622.816488	-34.846637	341.808530	535.957552	-51.593216	313.577258	454.243498	-57.720799	370.454569	538.158288	-80.277721	299.288614	333.739351	-65.507309	310.284337	358.015684	-153.983889	228.004373	283.391895	-111.026096	518.514379	354.320684	-104.998029	439.946582	297.917735	-40.500573	190.221445	997.665440	-429.639660	267.897971	957.591148	-424.851576	289.906512	981.108216	-407.958408	315.650904	882.436620	-428.053437	376.640216	772.436564	-413.015153	369.702548	744.404125	-300.929097	80.899989	475.963386	-405.069131	116.417019	472.186700	-321.295022	22.590152	501.884221	-361.441729	125.307696	313.288691	-420.419333	291.227105	674.013902	-430.726685	246.944141	605.102699	-414.547263	170.531365	558.508183	-412.903112	263.830855	589.482377	-377.609247	204.845931	277.566489	-352.392919	-191.496384	922.162439	-231.547714	-0.032080	79.876124	-427.314088	-1.289187	79.947238	-29.391523	
